<?xml version="1.0" standalone="no"?>
<!DOCTYPE svg PUBLIC "-//W3C//DTD SVG 20010904//EN"
 "http://www.w3.org/TR/2001/REC-SVG-20010904/DTD/svg10.dtd">
<svg version="1.0" xmlns="http://www.w3.org/2000/svg"
 width="32px" height="32px" viewBox="0 0 265.000000 265.000000"
 preserveAspectRatio="xMidYMid meet">

<g transform="translate(0.000000,265.000000) scale(0.100000,-0.100000)"
fill="#000000" stroke="none">
<path d="M1160 2628 c-75 -39 -84 -60 -90 -211 -3 -73 -10 -140 -14 -151 -12
-24 -102 -66 -145 -66 -29 0 -46 12 -120 84 -90 89 -119 106 -178 106 -57 0
-94 -25 -205 -138 -164 -166 -167 -214 -23 -362 46 -47 86 -96 90 -111 7 -29
-27 -130 -52 -151 -11 -9 -59 -15 -147 -18 -143 -6 -178 -17 -220 -73 -20 -27
-21 -41 -21 -212 0 -170 2 -186 21 -211 46 -62 64 -69 209 -74 121 -5 136 -7
157 -27 31 -29 62 -115 53 -145 -4 -13 -45 -61 -90 -108 -97 -100 -116 -142
-96 -213 10 -33 38 -67 134 -163 100 -99 128 -122 158 -127 71 -11 104 6 198
96 103 99 126 108 199 77 83 -36 86 -43 92 -195 5 -145 12 -163 74 -209 23
-18 42 -21 129 -21 l102 0 5 185 5 185 249 3 249 2 81 -86 81 -86 0 -59 c0
-53 3 -62 33 -91 26 -27 40 -33 75 -33 54 0 94 26 114 73 13 32 14 42 2 77
-21 58 -70 89 -133 81 l-49 -5 -91 94 -91 95 -262 0 -263 0 0 170 0 170 -74 0
c-40 0 -89 2 -107 5 -26 4 -29 3 -14 -4 11 -5 46 -13 78 -16 l57 -8 -2 -346
-3 -346 -47 -3 c-58 -4 -111 19 -127 54 -6 14 -11 73 -11 132 0 146 -18 183
-109 230 -111 56 -151 45 -272 -74 -83 -81 -88 -84 -133 -84 -46 0 -48 2 -148
103 -55 56 -107 112 -116 125 -27 41 -9 79 82 172 101 103 116 140 92 224 -20
68 -52 114 -96 137 -27 15 -57 19 -141 19 -190 0 -199 11 -199 229 l0 151 29
32 29 33 134 5 c106 4 140 9 161 23 35 22 62 67 83 132 26 81 10 119 -92 225
-66 68 -86 96 -91 125 -6 36 -3 39 114 156 158 158 161 158 311 14 35 -33 73
-65 85 -72 35 -20 100 -15 158 11 99 44 119 86 119 247 0 105 1 110 29 141 25
29 35 32 95 36 l66 4 0 -349 0 -349 -37 -11 -38 -10 45 2 c100 4 89 -16 92
168 l3 162 268 5 269 5 20 25 c11 14 49 55 84 92 l64 67 53 -6 c47 -5 56 -2
84 21 45 38 58 83 38 132 -24 59 -59 79 -132 75 -13 -1 -37 -14 -55 -30 -30
-27 -33 -34 -33 -89 l0 -60 -79 -86 -78 -86 -254 0 -254 0 0 178 c0 125 -4
182 -12 190 -7 7 -42 12 -88 12 -59 0 -86 -5 -120 -22z m1047 -94 c15 -24 15
-29 2 -53 -28 -50 -109 -32 -109 25 0 55 76 75 107 28z m-15 -2346 c27 -22 30
-53 7 -81 -24 -32 -52 -34 -79 -7 -27 27 -26 65 2 84 27 19 49 20 70 4z"/>
<path d="M2423 2199 c-18 -5 -45 -25 -60 -44 l-28 -35 -170 0 -170 0 -118
-117 -118 -118 37 -3 c35 -3 43 2 128 87 l91 91 162 0 162 0 16 -30 c30 -59
118 -79 170 -38 36 28 56 78 49 118 -7 33 -57 90 -79 90 -7 0 -19 2 -27 4 -7
2 -28 0 -45 -5z m82 -83 c37 -56 -36 -115 -87 -69 -10 9 -18 26 -18 39 0 53
76 75 105 30z"/>
<path d="M910 1440 c-46 -91 -140 -302 -140 -315 0 -11 11 -15 38 -15 34 0 40
4 55 35 l17 35 93 0 93 0 17 -35 c15 -31 21 -35 57 -35 22 0 40 5 40 10 0 6
-37 89 -81 185 l-81 175 -44 0 c-41 0 -45 -3 -64 -40z m94 -122 c13 -29 21
-56 19 -60 -6 -11 -91 -10 -97 1 -7 10 35 111 46 111 5 0 19 -24 32 -52z"/>
<path d="M1320 1295 l0 -185 168 2 167 3 0 40 0 40 -122 3 -122 3 -3 137 -3
137 -42 3 -43 3 0 -186z"/>
<path d="M1710 1435 l0 -45 70 0 70 0 0 -140 0 -140 45 0 45 0 0 140 0 140 70
0 70 0 0 45 0 45 -185 0 -185 0 0 -45z"/>
<path d="M2220 1343 c0 -155 10 -187 72 -220 47 -24 180 -24 230 0 65 33 73
54 76 215 l4 142 -46 0 -46 0 0 -125 c0 -154 -7 -165 -99 -165 -94 0 -100 9
-103 160 l-3 125 -42 3 -43 3 0 -138z"/>
<path d="M1750 773 c0 -5 55 -61 122 -125 l123 -117 178 -1 c139 0 177 -3 177
-13 0 -25 57 -68 96 -74 30 -4 47 1 74 19 86 58 63 189 -38 215 -42 10 -101
-15 -124 -53 l-20 -34 -162 0 -161 0 -95 95 c-86 86 -98 95 -132 95 -21 0 -38
-3 -38 -7z m749 -179 c27 -34 26 -40 -4 -69 -29 -30 -49 -31 -75 -5 -27 27
-26 65 2 84 32 23 54 20 77 -10z"/>
</g>
</svg>
