<?xml version="1.0" encoding="utf-8"?><svg xmlns="http://www.w3.org/2000/svg" xmlns:xlink="http://www.w3.org/1999/xlink"><symbol viewBox="0 0 68 68" id="design" xmlns="http://www.w3.org/2000/svg">
    <g clip-path="url(#aclip0_5_30)">
        <path d="M30.5 24L39.5933 36H21.4067L30.5 24Z" style="fill:color(display-p3 1.0000 0.8396 0.2708);fill-opacity:1"/>
        <path d="M42 17L54.9904 36.5H29.0096L42 17Z" style="fill:color(display-p3 1.0000 0.8396 0.2708);fill-opacity:1"/>
        <path d="M66.0078 47.9453H1.99219C0.891969 47.9453 0 48.8373 0 49.9375V66.0078C0 67.108 0.891969 68 1.99219 68H66.0078C67.108 68 68 67.108 68 66.0078V49.9375C68 48.8373 67.108 47.9453 66.0078 47.9453ZM64.0156 64.0156H59.8984V57.9062C59.8984 56.806 59.0065 55.9141 57.9062 55.9141C56.806 55.9141 55.9141 56.806 55.9141 57.9062V64.0156H51.9297V61.8906C51.9297 60.7904 51.0377 59.8984 49.9375 59.8984C48.8373 59.8984 47.9453 60.7904 47.9453 61.8906V64.0156H43.9609V57.9062C43.9609 56.806 43.069 55.9141 41.9688 55.9141C40.8685 55.9141 39.9766 56.806 39.9766 57.9062V64.0156H35.9922V61.8906C35.9922 60.7904 35.1002 59.8984 34 59.8984C32.8998 59.8984 32.0078 60.7904 32.0078 61.8906V64.0156H28.0234V57.9062C28.0234 56.806 27.1315 55.9141 26.0312 55.9141C24.931 55.9141 24.0391 56.806 24.0391 57.9062V64.0156H20.0547V61.8906C20.0547 60.7904 19.1627 59.8984 18.0625 59.8984C16.9623 59.8984 16.0703 60.7904 16.0703 61.8906V64.0156H12.0859V57.9062C12.0859 56.806 11.194 55.9141 10.0938 55.9141C8.99353 55.9141 8.10156 56.806 8.10156 57.9062V64.0156H3.98438V51.9297H64.0156V64.0156Z" style="fill:black;fill-opacity:1"/>
        <path d="M66.0078 12.0859C67.108 12.0859 68 11.194 68 10.0938V1.99219C68 0.891969 67.108 0 66.0078 0H57.9062C56.806 0 55.9141 0.891969 55.9141 1.99219V3.98438H12.0859V1.99219C12.0859 0.891969 11.194 0 10.0938 0H1.99219C0.891969 0 0 0.891969 0 1.99219V10.0938C0 11.194 0.891969 12.0859 1.99219 12.0859H3.98438V32.0078H1.99219C0.891969 32.0078 0 32.8998 0 34V41.9688C0 43.069 0.891969 43.9609 1.99219 43.9609H10.0938C11.194 43.9609 12.0859 43.069 12.0859 41.9688V39.9766C13.6386 39.9766 54.4444 39.9766 55.9141 39.9766V41.9688C55.9141 43.069 56.806 43.9609 57.9062 43.9609H66.0078C67.108 43.9609 68 43.069 68 41.9688V34C68 32.8998 67.108 32.0078 66.0078 32.0078H64.0156V12.0859H66.0078ZM3.98438 3.98438H8.10156V8.10156H3.98438V3.98438ZM8.10156 39.9766H3.98438V35.9922H8.10156V39.9766ZM22.0469 35.9922L30.0156 25.3672L37.9844 35.9922H22.0469ZM42.9648 35.9922L35.9707 26.6668L41.9688 17.6696L54.1838 35.9922H42.9648ZM56.6269 32.4739L43.6264 12.973C42.8403 11.794 41.1003 11.7892 40.3111 12.973L33.4355 23.2864L31.6094 20.8516C30.8124 19.7889 29.2173 19.7911 28.4219 20.8516L17.0664 35.9922H12.0859V34C12.0859 32.8998 11.194 32.0078 10.0938 32.0078H7.96875V12.0859H10.0938C11.194 12.0859 12.0859 11.194 12.0859 10.0938V7.96875H55.9141V10.0938C55.9141 11.194 56.806 12.0859 57.9062 12.0859H60.0312V32.0078H57.9062C57.419 32.0078 56.9731 32.1833 56.6269 32.4739ZM64.0156 39.9766H59.8984V35.9922H64.0156V39.9766ZM59.8984 8.10156V3.98438H64.0156V8.10156H59.8984Z" style="fill:black;fill-opacity:1"/>
        <path d="M18.0625 12.0859C14.767 12.0859 12.0859 14.767 12.0859 18.0625C12.0859 21.358 14.767 24.0391 18.0625 24.0391C21.358 24.0391 24.0391 21.358 24.0391 18.0625C24.0391 14.767 21.358 12.0859 18.0625 12.0859ZM18.0625 20.0547C16.964 20.0547 16.0703 19.161 16.0703 18.0625C16.0703 16.964 16.964 16.0703 18.0625 16.0703C19.161 16.0703 20.0547 16.964 20.0547 18.0625C20.0547 19.161 19.161 20.0547 18.0625 20.0547Z" style="fill:black;fill-opacity:1"/>
    </g>
    <defs>
        <clipPath id="aclip0_5_30">
            <rect width="68" height="68" style="fill:white;fill-opacity:1"/>
        </clipPath>
    </defs>
</symbol><symbol viewBox="0 0 68 68" id="develop" xmlns="http://www.w3.org/2000/svg">
    <g clip-path="url(#bclip0_5_83)">
        <path d="M24.5 22.5L18 26.5V35.5L19.5 37L24.5 34" style="stroke:black;stroke-opacity:1"/>
        <path d="M24 22.5L24.5 34L22.5 35L18 37.5L17.5 35L18 26.5L24 22.5Z" style="fill:color(display-p3 1.0000 0.8396 0.2708);fill-opacity:1;stroke:black;stroke-opacity:1"/>
        <path d="M26 31.5L27.5 12.5L33.5 2L37 4L44 21.5L49 27.5V38L44 35H38.5L42 45H26L29 35L26 31.5Z" style="fill:color(display-p3 1.0000 0.8396 0.2708);fill-opacity:1;stroke:black;stroke-opacity:1"/>
        <path d="M62.0234 7.96917H40.9753C40.9096 7.96917 40.8446 7.97276 40.7805 7.979C39.3922 5.24798 37.5922 2.76744 35.4087 0.584C34.6309 -0.194016 33.3694 -0.194016 32.5914 0.584C30.408 2.76744 28.6079 5.24811 27.2197 7.97913C27.1554 7.97276 27.0904 7.96917 27.0247 7.96917H5.97656C2.68109 7.96917 0 10.6504 0 13.9457V49.8051C0 53.1006 2.68109 55.7817 5.97656 55.7817H23.2863L20.6012 64.0161H18.0625C16.9623 64.0161 16.0703 64.908 16.0703 66.0082C16.0703 67.1085 16.9623 68.0004 18.0625 68.0004C18.3644 68.0004 49.6526 68.0004 49.9375 68.0004C51.0377 68.0004 51.9297 67.1085 51.9297 66.0082C51.9297 64.908 51.0377 64.0161 49.9375 64.0161H47.3989L44.7139 55.7817H62.0234C65.3189 55.7817 68 53.1006 68 49.8051V13.9457C68 10.6504 65.3189 7.96917 62.0234 7.96917ZM34 4.92843C35.6119 6.82433 36.9171 8.92316 37.8926 11.1628C36.6693 11.6821 35.3482 11.9535 34 11.9535C32.6518 11.9535 31.3307 11.6821 30.1074 11.1626C31.0829 8.92316 32.3881 6.82446 34 4.92843ZM28.0234 21.9146C28.0234 19.721 28.1139 17.6679 28.8119 14.9386C30.4516 15.5957 32.2094 15.9379 34 15.9379C35.7906 15.9379 37.5484 15.5957 39.1881 14.9385C39.878 17.6363 39.9766 19.6965 39.9766 21.9146V31.8756C38.7668 31.8756 29.9717 31.8756 28.0234 31.8756V21.9146ZM39.2048 43.8286H28.7953L31.4516 35.8598H36.5485L39.2048 43.8286ZM3.98438 13.9457C3.98438 12.8472 4.87807 11.9535 5.97656 11.9535H25.5525C24.6658 14.5931 24.167 17.3282 24.062 20.1186C19.5096 21.0354 16.0703 25.0648 16.0703 29.8834V37.8521C16.0703 38.5426 16.4278 39.1838 17.0151 39.5468C17.6036 39.9106 18.3372 39.9422 18.9534 39.6341L26.5015 35.8598H27.2515L24.5953 43.8286H3.98438V13.9457ZM24.0391 24.2481V32.6364L20.0547 34.6288V29.8834C20.0547 27.286 21.72 25.0702 24.0391 24.2481ZM24.792 64.0161L27.4772 55.7817H40.5231L43.2082 64.0161H24.792ZM64.0156 49.8051C64.0156 50.9036 63.1219 51.7973 62.0234 51.7973C61.404 51.7973 6.29173 51.7973 5.97656 51.7973C4.87807 51.7973 3.98438 50.9036 3.98438 49.8051V47.8129C6.16436 47.8129 61.7099 47.8129 64.0156 47.8129V49.8051ZM64.0156 43.8286H43.4047L40.7485 35.8598H41.4985L49.0466 39.6339C49.6631 39.9422 50.3965 39.9103 50.9849 39.5467C51.5722 39.1837 51.9297 38.5425 51.9297 37.852V29.8832C51.9297 25.0648 48.4904 21.0353 43.938 20.1186C43.8332 17.3281 43.3342 14.5931 42.4475 11.9535H62.0234C63.1219 11.9535 64.0156 12.8472 64.0156 13.9457V43.8286ZM43.9609 32.6364V24.2481C46.28 25.0704 47.9453 27.2861 47.9453 29.8834V34.6286L43.9609 32.6364Z" style="fill:black;fill-opacity:1"/>
        <path d="M34 23.9064C35.1003 23.9064 35.9922 23.0144 35.9922 21.9142C35.9922 20.8139 35.1003 19.922 34 19.922C32.8997 19.922 32.0078 20.8139 32.0078 21.9142C32.0078 23.0144 32.8997 23.9064 34 23.9064Z" style="fill:black;fill-opacity:1"/>
    </g>
    <defs>
        <clipPath id="bclip0_5_83">
            <rect width="68" height="68" style="fill:white;fill-opacity:1"/>
        </clipPath>
    </defs>
</symbol><symbol viewBox="0 0 24 25" id="heart" xmlns="http://www.w3.org/2000/svg">
    <path fill-rule="evenodd" clip-rule="evenodd" d="M12.6924 7.58373C12.3055 7.95505 11.6945 7.95505 11.3076 7.58373L10.6152 6.91927C9.80477 6.14154 8.70994 5.66667 7.5 5.66667C5.01472 5.66667 3 7.68139 3 10.1667C3 12.5493 4.28979 14.5167 6.15176 16.1332C8.01532 17.7511 10.2434 18.8241 11.5746 19.3717C11.853 19.4862 12.147 19.4862 12.4254 19.3717C13.7566 18.8241 15.9847 17.7511 17.8482 16.1332C19.7102 14.5167 21 12.5493 21 10.1667C21 7.68139 18.9853 5.66667 16.5 5.66667C15.2901 5.66667 14.1952 6.14154 13.3848 6.91927L12.6924 7.58373ZM12 5.47624C10.8321 4.35548 9.24649 3.66667 7.5 3.66667C3.91015 3.66667 1 6.57682 1 10.1667C1 16.5349 7.97034 20.0517 10.8138 21.2214C11.5796 21.5364 12.4204 21.5364 13.1862 21.2214C16.0297 20.0517 23 16.5349 23 10.1667C23 6.57682 20.0899 3.66667 16.5 3.66667C14.7535 3.66667 13.1679 4.35548 12 5.47624Z"/>
</symbol><symbol viewBox="0 0 24 24" id="heart-line" xmlns="http://www.w3.org/2000/svg">
    <path d="M12.001 4.52853C14.35 2.42 17.98 2.49 20.2426 4.75736C22.5053 7.02472 22.583 10.637 20.4786 12.993L11.9999 21.485L3.52138 12.993C1.41705 10.637 1.49571 7.01901 3.75736 4.75736C6.02157 2.49315 9.64519 2.41687 12.001 4.52853ZM18.827 6.1701C17.3279 4.66794 14.9076 4.60701 13.337 6.01687L12.0019 7.21524L10.6661 6.01781C9.09098 4.60597 6.67506 4.66808 5.17157 6.17157C3.68183 7.66131 3.60704 10.0473 4.97993 11.6232L11.9999 18.6543L19.0201 11.6232C20.3935 10.0467 20.319 7.66525 18.827 6.1701Z"/>
</symbol><symbol viewBox="0 0 24 24" id="id-card-line" xmlns="http://www.w3.org/2000/svg">
    <path d="M3 6H21V18H3V6ZM2 4C1.44772 4 1 4.44772 1 5V19C1 19.5523 1.44772 20 2 20H22C22.5523 20 23 19.5523 23 19V5C23 4.44772 22.5523 4 22 4H2ZM13 8H19V10H13V8ZM18 12H13V14H18V12ZM10.5 10C10.5 11.3807 9.38071 12.5 8 12.5C6.61929 12.5 5.5 11.3807 5.5 10C5.5 8.61929 6.61929 7.5 8 7.5C9.38071 7.5 10.5 8.61929 10.5 10ZM8 13.5C6.067 13.5 4.5 15.067 4.5 17H11.5C11.5 15.067 9.933 13.5 8 13.5Z"/>
</symbol><symbol viewBox="0 0 24 24" id="search" xmlns="http://www.w3.org/2000/svg">
    <path d="M18.5 18.5L22 22M21 11.5C21 6.25329 16.7467 2 11.5 2C6.25329 2 2 6.25329 2 11.5C2 16.7467 6.25329 21 11.5 21C16.7467 21 21 16.7467 21 11.5Z" stroke-width="1.5" stroke-linecap="round" stroke-linejoin="round"/>
</symbol><symbol viewBox="0 0 24 24" id="search-line" xmlns="http://www.w3.org/2000/svg">
    <path d="M18.031 16.6168L22.3137 20.8995L20.8995 22.3137L16.6168 18.031C15.0769 19.263 13.124 20 11 20C6.032 20 2 15.968 2 11C2 6.032 6.032 2 11 2C15.968 2 20 6.032 20 11C20 13.124 19.263 15.0769 18.031 16.6168ZM16.0247 15.8748C17.2475 14.6146 18 12.8956 18 11C18 7.1325 14.8675 4 11 4C7.1325 4 4 7.1325 4 11C4 14.8675 7.1325 18 11 18C12.8956 18 14.6146 17.2475 15.8748 16.0247L16.0247 15.8748Z"/>
</symbol><symbol viewBox="0 0 68 68" id="testing" xmlns="http://www.w3.org/2000/svg">
    <g clip-path="url(#hclip0_5_105)">
        <rect x="46" y="27" width="12" height="30" style="fill:color(display-p3 1.0000 0.8396 0.2708);fill-opacity:1"/>
        <rect x="11" y="43" width="27" height="14" style="fill:color(display-p3 1.0000 0.8396 0.2708);fill-opacity:1"/>
        <rect x="11" y="27" width="27" height="6" style="fill:color(display-p3 1.0000 0.8396 0.2708);fill-opacity:1"/>
        <path d="M62.0234 0H5.97656C2.68109 0 0 2.68109 0 5.97656V62.0234C0 65.3189 2.68109 68 5.97656 68H62.0234C65.3189 68 68 65.3189 68 62.0234V5.97656C68 2.68109 65.3189 0 62.0234 0ZM3.98438 5.97656C3.98438 4.87807 4.87807 3.98438 5.97656 3.98438H15.9375V15.9375H3.98438V5.97656ZM64.0156 62.0234C64.0156 63.1219 63.1219 64.0156 62.0234 64.0156H5.97656C4.87807 64.0156 3.98438 63.1219 3.98438 62.0234V19.9219H64.0156V62.0234ZM64.0156 15.9375H19.9219V3.98438H62.0234C63.1219 3.98438 64.0156 4.87807 64.0156 5.97656V15.9375Z" style="fill:black;fill-opacity:1"/>
        <path d="M58.0391 7.96875H54.0547C52.9545 7.96875 52.0625 8.86072 52.0625 9.96094C52.0625 11.0612 52.9545 11.9531 54.0547 11.9531H58.0391C59.1393 11.9531 60.0312 11.0612 60.0312 9.96094C60.0312 8.86072 59.1393 7.96875 58.0391 7.96875Z" style="fill:black;fill-opacity:1"/>
        <path d="M45.9531 7.96875H41.9688C40.8685 7.96875 39.9766 8.86072 39.9766 9.96094C39.9766 11.0612 40.8685 11.9531 41.9688 11.9531H45.9531C47.0533 11.9531 47.9453 11.0612 47.9453 9.96094C47.9453 8.86072 47.0533 7.96875 45.9531 7.96875Z" style="fill:black;fill-opacity:1"/>
        <path d="M34 7.96875H30.0156C28.9154 7.96875 28.0234 8.86072 28.0234 9.96094C28.0234 11.0612 28.9154 11.9531 30.0156 11.9531H34C35.1002 11.9531 35.9922 11.0612 35.9922 9.96094C35.9922 8.86072 35.1002 7.96875 34 7.96875Z" style="fill:black;fill-opacity:1"/>
        <path d="M37.9844 24.0391H9.96094C8.86072 24.0391 7.96875 24.931 7.96875 26.0312V34C7.96875 35.1002 8.86072 35.9922 9.96094 35.9922H37.9844C39.0846 35.9922 39.9766 35.1002 39.9766 34V26.0312C39.9766 24.931 39.0846 24.0391 37.9844 24.0391ZM35.9922 32.0078H11.9531V28.0234H35.9922V32.0078Z" style="fill:black;fill-opacity:1"/>
        <path d="M58.0391 24.0391H45.9531C44.8529 24.0391 43.9609 24.931 43.9609 26.0312V58.0391C43.9609 59.1393 44.8529 60.0312 45.9531 60.0312H58.0391C59.1393 60.0312 60.0312 59.1393 60.0312 58.0391V26.0312C60.0312 24.931 59.1393 24.0391 58.0391 24.0391ZM56.0469 56.0469H47.9453V28.0234H56.0469V56.0469Z" style="fill:black;fill-opacity:1"/>
        <path d="M37.9844 39.9766H9.96094C8.86072 39.9766 7.96875 40.8685 7.96875 41.9688V58.0391C7.96875 59.1393 8.86072 60.0312 9.96094 60.0312H37.9844C39.0846 60.0312 39.9766 59.1393 39.9766 58.0391V41.9688C39.9766 40.8685 39.0846 39.9766 37.9844 39.9766ZM35.9922 56.0469H11.9531V43.9609H35.9922V56.0469Z" style="fill:black;fill-opacity:1"/>
    </g>
    <defs>
        <clipPath id="hclip0_5_105">
            <rect width="68" height="68" style="fill:white;fill-opacity:1"/>
        </clipPath>
    </defs>
</symbol><symbol viewBox="0 0 24 24" id="user" xmlns="http://www.w3.org/2000/svg">
    <path d="M18.5588 19.5488C17.5654 16.8918 15.0036 15 12 15C8.99638 15 6.4346 16.8918 5.44117 19.5488M18.5588 19.5488C20.6672 17.7154 22 15.0134 22 12C22 6.47715 17.5228 2 12 2C6.47715 2 2 6.47715 2 12C2 15.0134 3.33285 17.7154 5.44117 19.5488M18.5588 19.5488C16.8031 21.0756 14.5095 22 12 22C9.49052 22 7.19694 21.0756 5.44117 19.5488M15 9C15 10.6569 13.6569 12 12 12C10.3431 12 9 10.6569 9 9C9 7.34315 10.3431 6 12 6C13.6569 6 15 7.34315 15 9Z" stroke-width="1.5" stroke-linejoin="round"/>
</symbol><symbol viewBox="0 0 24 24" id="user-star-line" xmlns="http://www.w3.org/2000/svg">
    <path d="M12 14V16C8.68629 16 6 18.6863 6 22H4C4 17.5817 7.58172 14 12 14ZM12 13C8.685 13 6 10.315 6 7C6 3.685 8.685 1 12 1C15.315 1 18 3.685 18 7C18 10.315 15.315 13 12 13ZM12 11C14.21 11 16 9.21 16 7C16 4.79 14.21 3 12 3C9.79 3 8 4.79 8 7C8 9.21 9.79 11 12 11ZM18 21.5L15.0611 23.0451L15.6224 19.7725L13.2447 17.4549L16.5305 16.9775L18 14L19.4695 16.9775L22.7553 17.4549L20.3776 19.7725L20.9389 23.0451L18 21.5Z"/>
</symbol><symbol id="website" enable-background="new 0 0 497 497" viewBox="0 0 497 497" xmlns="http://www.w3.org/2000/svg">
    <g>
        <path d="m497 128.5v312c0 11.046-8.954 20-20 20h-457c-11.046 0-20-8.954-20-20v-312z"/>
        <g>
            <path d="m290.498 294.5c0-23.196-18.804-42-42-42-7.031 0-13.659 1.728-19.482 4.782-13.386 7.021-19.327 21.053-19.327 37.218 0 23.196 15.613 36.457 38.809 36.457 16.214 0 30.282-3.645 37.282-17.099 3.014-5.792 4.718-12.376 4.718-19.358z"/>
            <path d="m286.468 312.47c-6.73 14.21-21.2 24.03-37.97 24.03-23.2 0-42-18.8-42-42 0-16.77 9.82-31.24 24.03-37.97-2.59 5.45-4.03 11.54-4.03 17.97 0 23.2 18.8 42 42 42 6.43 0 12.52-1.44 17.97-4.03z"/>
        </g>
        <g>
            <path d="m429.496 294.5c0-23.196-18.804-42-42-42-7.031 0-13.659 1.728-19.482 4.782-13.386 7.021-19.327 21.053-19.327 37.218 0 23.196 15.613 36.457 38.809 36.457 16.214 0 30.282-3.645 37.282-17.099 3.014-5.792 4.718-12.376 4.718-19.358z"/>
            <path d="m425.466 312.47c-6.73 14.21-21.2 24.03-37.97 24.03-23.2 0-42-18.8-42-42 0-16.77 9.82-31.24 24.03-37.97-2.59 5.45-4.03 11.54-4.03 17.97 0 23.2 18.8 42 42 42 6.43 0 12.52-1.44 17.97-4.03z"/>
        </g>
        <path d="m497 148.5v-20l-276.011-12.798-220.989 12.798v20 292c0 11.046 8.954 20 20 20h15c-8.28 0-15-6.72-15-15v-291c0-3.314 2.686-6 6-6z"/>
        <g>
            <path d="m497 56.5v72.5h-497v-72.5c0-11.046 8.954-20 20-20h457c11.046 0 20 8.954 20 20z"/>
            <g>
                <path d="m227.758 108.5c-8.255 0-14.947-6.716-14.947-15s6.692-15 14.947-15h208.315c8.255 0 14.947 6.716 14.947 15s-6.692 15-14.947 15z"/>
                <ellipse cx="160.869" cy="93.5" rx="14.947" ry="15"/>
                <path d="m171.361 104.184 12.874-12.869-13.139 1.179z"/>
                <path d="m150.592 82.608 12.562-12.516-2.693 10.408z"/>
                <ellipse cx="98.034" cy="93.5" rx="14.947" ry="15"/>
                <path d="m108.553 104.157 12.382-12.499-12.674.836z"/>
                <path d="m87.757 82.608 12.371-12.459-2.502 10.351z"/>
                <ellipse cx="32.947" cy="93.5" rx="14.947" ry="15"/>
                <path d="m43.769 103.846 12.721-13.186-13.139 1.381z"/>
                <path d="m22.67 82.608 11.622-12.038-1.753 9.93z"/>
            </g>
            <ellipse cx="173.849" cy="80.5" rx="14.947" ry="15"/>
            <path d="m217.514 82.577 12.971-12.991-3.025 14.276z"/>
            <path d="m446.83 103.915 13.149-13.179-10.185 3.381z"/>
            <ellipse cx="110.946" cy="80.5" rx="14.947" ry="15"/>
            <ellipse cx="45.495" cy="80.5" rx="14.947" ry="15"/>
            <path d="m240.737 95.5c-8.255 0-14.947-6.716-14.947-15s6.692-15 14.947-15h208.315c8.255 0 14.947 6.716 14.947 15s-6.692 15-14.947 15z"/>
        </g>
        <path d="m135.893 215 226.628 2c5.523 0 10-4.477 10-10l3.479-7v-30c0-5.523-4.477-10-10-10h-224l-6.107 5c-5.523 0-10 4.477-10 10v30c0 5.523 4.477 10 10 10z"/>
        <path d="m376 200v10c0 5.523-4.477 10-10 10h-234c-5.523 0-10-4.477-10-10v-40c0-5.523 4.477-10 10-10h10v33c0 3.866 3.134 7 7 7z"/>
        <g>
            <path d="m151.5 294.5c0-23.196-18.804-42-42-42-7.031 0-13.659 1.728-19.482 4.782-13.386 7.021-19.327 21.053-19.327 37.218 0 23.196 15.613 36.457 38.809 36.457 16.214 0 30.282-3.645 37.282-17.099 3.014-5.792 4.718-12.376 4.718-19.358z"/>
            <path d="m147.47 312.47c-6.73 14.21-21.2 24.03-37.97 24.03-23.2 0-42-18.8-42-42 0-16.77 9.82-31.24 24.03-37.97-2.59 5.45-4.03 11.54-4.03 17.97 0 23.2 18.8 42 42 42 6.43 0 12.52-1.44 17.97-4.03z"/>
        </g>
        <g>
            <g>
                <path d="m149.5 374h-70c-4.142 0-7.5-3.358-7.5-7.5s3.358-7.5 7.5-7.5h70c4.142 0 7.5 3.358 7.5 7.5s-3.358 7.5-7.5 7.5z"/>
            </g>
            <g>
                <path d="m149.5 404h-80c-4.142 0-7.5-3.358-7.5-7.5s3.358-7.5 7.5-7.5h80c4.142 0 7.5 3.358 7.5 7.5s-3.358 7.5-7.5 7.5z"/>
            </g>
            <g>
                <path d="m149.5 434h-80c-4.142 0-7.5-3.358-7.5-7.5s3.358-7.5 7.5-7.5h80c4.142 0 7.5 3.358 7.5 7.5s-3.358 7.5-7.5 7.5z"/>
            </g>
        </g>
        <g>
            <g>
                <path d="m288.5 374h-70c-4.142 0-7.5-3.358-7.5-7.5s3.358-7.5 7.5-7.5h70c4.143 0 7.5 3.358 7.5 7.5s-3.357 7.5-7.5 7.5z"/>
            </g>
            <g>
                <path d="m288.5 404h-80c-4.142 0-7.5-3.358-7.5-7.5s3.358-7.5 7.5-7.5h80c4.143 0 7.5 3.358 7.5 7.5s-3.357 7.5-7.5 7.5z"/>
            </g>
            <g>
                <path d="m288.5 434h-80c-4.142 0-7.5-3.358-7.5-7.5s3.358-7.5 7.5-7.5h80c4.143 0 7.5 3.358 7.5 7.5s-3.357 7.5-7.5 7.5z"/>
            </g>
        </g>
        <g>
            <g>
                <path d="m427.5 374h-70c-4.143 0-7.5-3.358-7.5-7.5s3.357-7.5 7.5-7.5h70c4.143 0 7.5 3.358 7.5 7.5s-3.357 7.5-7.5 7.5z"/>
            </g>
            <g>
                <path d="m427.5 404h-80c-4.143 0-7.5-3.358-7.5-7.5s3.357-7.5 7.5-7.5h80c4.143 0 7.5 3.358 7.5 7.5s-3.357 7.5-7.5 7.5z"/>
            </g>
            <g>
                <path d="m427.5 434h-80c-4.143 0-7.5-3.358-7.5-7.5s3.357-7.5 7.5-7.5h80c4.143 0 7.5 3.358 7.5 7.5s-3.357 7.5-7.5 7.5z"/>
            </g>
        </g>
    </g>
</symbol></svg>