<?xml version="1.0" encoding="utf-8"?><svg viewBox="0 0 512 512" xmlns="http://www.w3.org/2000/svg" xmlns:xlink="http://www.w3.org/1999/xlink"><style>:root>svg{display:none}:root>svg:target{display:block}</style><svg fill="none" viewBox="0 0 41 41" id="Behance" xmlns="http://www.w3.org/2000/svg"><g clip-path="url(#aa)" fill="#070707" stroke="#070707" stroke-width=".5"><path d="M35.028.217H6.668C3.428.217.793 2.845.793 6.077v28.28c0 3.231 2.635 5.86 5.875 5.86h28.36c3.24 0 5.876-2.629 5.876-5.86V6.077c0-3.232-2.636-5.86-5.876-5.86Zm3.526 34.14a3.525 3.525 0 0 1-3.526 3.516H6.668a3.525 3.525 0 0 1-3.525-3.516V6.077A3.525 3.525 0 0 1 6.668 2.56h28.36a3.525 3.525 0 0 1 3.526 3.515v28.281Z" style="fill:color(display-p3 .0292 .0292 .0292);fill-opacity:1;stroke:color(display-p3 .0292 .0292 .0292);stroke-opacity:1"/><path d="M19.673 16.701c0-2.585-2.108-4.687-4.7-4.687H7.922V28.42h7.05c2.593 0 4.701-2.103 4.701-4.688a4.67 4.67 0 0 0-1.596-3.515 4.67 4.67 0 0 0 1.596-3.516Zm-2.35 7.031a2.35 2.35 0 0 1-2.35 2.344h-4.701V21.39h4.7a2.35 2.35 0 0 1 2.35 2.343Zm-7.051-4.687v-4.688h4.7a2.35 2.35 0 0 1 2.35 2.344 2.35 2.35 0 0 1-2.35 2.344h-4.7ZM27.899 16.701c-3.24 0-5.876 2.629-5.876 5.86 0 3.23 2.636 5.859 5.876 5.859a5.9 5.9 0 0 0 5.089-2.929l-2.035-1.174a3.53 3.53 0 0 1-6.378-.585h9.2v-1.171c0-3.231-2.636-5.86-5.876-5.86Zm-3.324 4.688a3.53 3.53 0 0 1 6.648 0h-6.648ZM23.198 12.014H32.6v2.343h-9.4v-2.343Z" style="fill:color(display-p3 .0292 .0292 .0292);fill-opacity:1;stroke:color(display-p3 .0292 .0292 .0292);stroke-opacity:1"/></g><defs><clipPath id="aa"><path fill="#fff" style="fill:#fff;fill-opacity:1" transform="translate(.793 .217)" d="M0 0h40.111v40H0z"/></clipPath></defs></svg><svg fill="none" viewBox="0 0 40 40" id="Dribble" xmlns="http://www.w3.org/2000/svg"><path d="m30.372 7.119.305-.385-.378-.312a16.673 16.673 0 0 0-10.67-3.845 16.9 16.9 0 0 0-4.097.524l-.727.182.447.602c1.39 1.87 3.388 4.696 5.78 9.121l.207.383.408-.152c4.527-1.68 7.24-4.252 8.725-6.118Zm-17.3-2.758-.246-.323-.366.173c-4.496 2.12-7.903 6.172-9.247 11.119l-.166.61.632.02c2.476.078 8.395-.038 14.952-1.795l.619-.166-.311-.56c-2.543-4.583-4.682-7.517-5.868-9.078ZM32.524 8.62l-.387-.46-.382.465c-1.656 2.021-4.531 4.646-9.084 6.428l-.506.198.24.488a72.893 72.893 0 0 1 2.801 6.427l.143.379.4-.061a38.401 38.401 0 0 1 8.637-.323c.56.046.92.098 1.34.159l.276.04.511.072.055-.514A17.619 17.619 0 0 0 32.526 8.62Zm-12.147 7.627-.185-.371-.399.113c-7.713 2.192-14.508 2.125-16.624 2.04l-.482-.02-.037.48-.002.034c-.037.477-.074.966-.074 1.486 0 5.233 2.264 9.905 5.835 13.102l.373.334.333-.373a49.726 49.726 0 0 1 3.556-3.608l.002-.002c2.746-2.531 6.28-5.21 10.128-6.379l.517-.157-.196-.503a74.489 74.489 0 0 0-2.745-6.176Zm9.49 7.896h-.006a38.167 38.167 0 0 0-3.182.293l-.594.08.185.57c.924 2.844 1.688 5.856 2.181 8.99l.125.789.655-.456a17.322 17.322 0 0 0 6.719-9.386l.165-.57-.59-.066c-1.46-.165-3.31-.332-5.658-.244Zm-5.656 1.186-.154-.454-.46.134c-3.38.984-6.918 3.535-9.598 5.995-1.295 1.179-2.341 2.298-3.18 3.214l-.414.45.524.316c2.545 1.535 5.501 2.437 8.69 2.437 2.394 0 4.652-.505 6.714-1.396l.348-.15-.051-.377c-.484-3.573-1.339-6.98-2.42-10.17ZM.576 19.999C.576 9.246 9.143.5 19.63.5c10.487 0 19.054 8.746 19.054 19.499 0 10.753-8.567 19.499-19.054 19.499C9.143 39.498.576 30.752.576 19.999Z" fill="#070707" stroke="#070707" style="fill:color(display-p3 .0292 .0292 .0292);fill-opacity:1;stroke:color(display-p3 .0292 .0292 .0292);stroke-opacity:1"/></svg><svg fill="none" viewBox="0 0 40 40" id="Instargam" xmlns="http://www.w3.org/2000/svg"><path d="M11.874.51h.5V.5H28.28c5.965 0 10.847 4.985 10.847 11.112v16.774c0 6.128-4.883 11.112-10.837 11.112H11.873c-5.966 0-10.856-4.976-10.856-11.093V11.622C1.018 5.495 5.909.51 11.874.51ZM3.026 11.63v16.785c0 4.986 3.928 9.017 8.848 9.017H28.29c4.903 0 8.829-4.032 8.829-9.036V11.622c0-5.005-3.927-9.036-8.839-9.036H11.874c-4.912 0-8.838 4.032-8.848 9.044ZM31.11 7.7c0-.59.455-1.038 1.005-1.038.55 0 1.004.448 1.004 1.038 0 .59-.454 1.038-1.004 1.038S31.11 8.29 31.11 7.7ZM10.052 20.004c0-5.656 4.525-10.266 10.03-10.266 5.504 0 10.028 4.61 10.028 10.266S25.586 30.27 20.081 30.27c-5.504 0-10.029-4.61-10.029-10.266Zm18.05 0c0-4.534-3.56-8.19-8.02-8.19-4.461 0-8.021 3.656-8.021 8.19 0 4.533 3.56 8.19 8.02 8.19 4.461 0 8.021-3.657 8.021-8.19Z" fill="#070707" stroke="#070707" style="fill:color(display-p3 .0292 .0292 .0292);fill-opacity:1;stroke:color(display-p3 .0292 .0292 .0292);stroke-opacity:1"/></svg><svg fill="none" viewBox="0 0 42 42" id="LinkedIn" xmlns="http://www.w3.org/2000/svg"><path d="M35.283.86h-28.4C3.64.86 1 3.491 1 6.726V35.05c0 3.236 2.64 5.869 5.884 5.869h28.399c3.244 0 5.884-2.633 5.884-5.869V6.727c0-3.235-2.64-5.868-5.884-5.868Zm3.53 34.19a3.53 3.53 0 0 1-3.53 3.521h-28.4a3.53 3.53 0 0 1-3.53-3.52V6.726a3.53 3.53 0 0 1 3.53-3.52h28.4a3.53 3.53 0 0 1 3.53 3.52V35.05Z" fill="#070707" stroke="#070707" style="fill:color(display-p3 .0292 .0292 .0292);fill-opacity:1;stroke:color(display-p3 .0292 .0292 .0292);stroke-opacity:1" stroke-width=".5"/><mask id="ja" fill="#fff"><path d="M32.128 29.895h-4.312V22.694c0-.497-.036-.988-.161-1.473-.515-1.998-2.741-1.881-3.627-.934-.445.476-.735 1.014-.748 1.679-.003.158-.012.316-.012.474v7.454h-4.304V16.53h4.302v1.793l.034.015.092-.125c.432-.599.927-1.13 1.585-1.488.736-.402 1.53-.536 2.356-.512.895.026 1.744.227 2.51.709.98.617 1.579 1.52 1.929 2.604.273.844.362 1.716.363 2.598.002 2.538 0 5.077 0 7.616 0 .05-.004.1-.007.156Z"/></mask><path d="M32.128 29.895h-4.312V22.694c0-.497-.036-.988-.161-1.473-.515-1.998-2.741-1.881-3.627-.934-.445.476-.735 1.014-.748 1.679-.003.158-.012.316-.012.474v7.454h-4.304V16.53h4.302v1.793l.034.015.092-.125c.432-.599.927-1.13 1.585-1.488.736-.402 1.53-.536 2.356-.512.895.026 1.744.227 2.51.709.98.617 1.579 1.52 1.929 2.604.273.844.362 1.716.363 2.598.002 2.538 0 5.077 0 7.616 0 .05-.004.1-.007.156Z" fill="#070707" style="fill:color(display-p3 .0292 .0292 .0292);fill-opacity:1"/><path d="M32.128 29.895v.031h.029l.001-.029-.03-.002Zm-4.312 0h-.03v.031h.03v-.03Zm0-7.201h.031-.03Zm-.161-1.473.03-.007-.03.008Zm-3.627-.934.023.02-.023-.02Zm-.748 1.679h-.03.03Zm-.012.474h.03-.03Zm0 7.454v.03h.03v-.03h-.03Zm-4.304 0h-.03v.03h.03v-.03Zm0-13.365v-.03h-.03v.03h.03Zm4.302 0h.03v-.03h-.03v.03Zm0 1.793h-.031v.02l.018.008.012-.028Zm.034.015-.012.028.022.01.015-.02-.025-.018Zm.092-.125.025.018-.025-.018Zm1.585-1.488.015.026-.015-.026Zm2.356-.512.001-.03v.03Zm2.51.709.016-.026-.016.026Zm1.929 2.604-.03.01.03-.01Zm.363 2.598h.03-.03Zm0 7.616h-.03.03Zm-.007.126H27.816v.061H32.128v-.061Zm-4.281.03V29.696h-.061V29.896h.061Zm0-.198v-7.003h-.06c-.002 2.334-.001 4.668-.001 7.003h.061Zm0-7.003c0-.499-.037-.992-.162-1.48l-.06.015c.124.481.161.97.161 1.465h.061Zm-.162-1.48c-.261-1.012-.957-1.49-1.7-1.595-.74-.103-1.529.165-1.98.647l.046.042c.435-.466 1.203-.73 1.925-.628.72.1 1.395.563 1.65 1.55l.059-.016Zm-3.68-.948c-.448.48-.743 1.025-.755 1.7h.06c.013-.655.3-1.186.74-1.658l-.044-.042Zm-.755 1.7c-.003.155-.012.317-.012.474h.06c0-.158.01-.313.013-.474h-.061Zm-.012.474-.001 7.249h.061V22.44h-.06Zm-.001 7.249V29.895h.061V29.688h-.061Zm.03.175H18.965v.06H23.268v-.06Zm-4.273.03V16.53h-.06V29.894h.06Zm-.03-13.334H23.265v-.061H18.965v.06Zm4.27-.03V18.321h.062V16.53h-.061Zm.02 1.82.034.015.024-.056-.034-.015-.025.056Zm.07.005c.03-.04.063-.083.093-.125l-.05-.036-.092.125.05.036Zm.093-.125c.43-.597.922-1.124 1.575-1.48l-.03-.053c-.663.362-1.162.897-1.594 1.497l.05.036Zm1.575-1.48c.73-.398 1.518-.532 2.34-.508l.002-.06c-.83-.025-1.63.11-2.371.515l.029.053Zm2.34-.508c.891.026 1.735.227 2.494.704l.033-.051c-.771-.485-1.626-.688-2.525-.714l-.002.061Zm2.494.704c.974.613 1.568 1.51 1.916 2.588l.059-.018c-.352-1.09-.954-2-1.942-2.621l-.033.052Zm1.916 2.588c.272.84.361 1.709.362 2.589h.062c-.001-.885-.091-1.76-.365-2.608l-.058.02Zm.362 2.589c.002 2.538.001 5.077 0 7.616h.062c0-2.539.002-5.078 0-7.616h-.062Zm0 7.616c0 .049-.004.096-.007.155l.061.003c.003-.056.008-.107.008-.158h-.061Z" fill="#070707" style="fill:color(display-p3 .0292 .0292 .0292);fill-opacity:1" mask="url(#ja)"/><path d="M16.319 29.887H12.069V16.542H16.319V29.887ZM14.377 9.888c.67 0 1.242.237 1.646.644.404.406.643.982.645 1.659.002.67-.238 1.24-.648 1.643-.41.404-.991.641-1.675.641-1.332.001-2.281-.95-2.284-2.29-.002-1.34.96-2.295 2.316-2.297Z" fill="#070707" stroke="#070707" style="fill:color(display-p3 .0292 .0292 .0292);fill-opacity:1;stroke:color(display-p3 .0292 .0292 .0292);stroke-opacity:1" stroke-width=".031"/></svg><svg fill="none" viewBox="0 0 68 68" id="design" xmlns="http://www.w3.org/2000/svg"><g clip-path="url(#ba)"><path d="m30.5 24 9.093 12H21.407L30.5 24Z" fill="#FFD645" style="fill:color(display-p3 1 .8396 .2708);fill-opacity:1"/><path d="m42 17 12.99 19.5H29.01L42 17Z" fill="#FFD645" style="fill:color(display-p3 1 .8396 .2708);fill-opacity:1"/><path d="M66.008 47.945H1.992c-1.1 0-1.992.892-1.992 1.992v16.07C0 67.109.892 68 1.992 68h64.016c1.1 0 1.992-.892 1.992-1.992v-16.07c0-1.1-.892-1.993-1.992-1.993Zm-1.992 16.07h-4.118v-6.109a1.992 1.992 0 0 0-3.984 0v6.11H51.93V61.89a1.992 1.992 0 0 0-3.985 0v2.125h-3.984v-6.11a1.992 1.992 0 0 0-3.984 0v6.11h-3.985V61.89a1.992 1.992 0 0 0-3.984 0v2.125h-3.985v-6.11a1.992 1.992 0 0 0-3.984 0v6.11h-3.984V61.89a1.992 1.992 0 0 0-3.985 0v2.125h-3.984v-6.11a1.992 1.992 0 0 0-3.984 0v6.11H3.984V51.93h60.032v12.086ZM66.008 12.086c1.1 0 1.992-.892 1.992-1.992V1.992C68 .892 67.108 0 66.008 0h-8.102c-1.1 0-1.992.892-1.992 1.992v1.992H12.086V1.992c0-1.1-.892-1.992-1.992-1.992H1.992C.892 0 0 .892 0 1.992v8.102c0 1.1.892 1.992 1.992 1.992h1.992v19.922H1.992C.892 32.008 0 32.9 0 34v7.969c0 1.1.892 1.992 1.992 1.992h8.102c1.1 0 1.992-.892 1.992-1.992v-1.992h43.828v1.992c0 1.1.892 1.992 1.992 1.992h8.102c1.1 0 1.992-.892 1.992-1.992V34c0-1.1-.892-1.992-1.992-1.992h-1.992V12.086h1.992ZM3.984 3.984h4.118v4.118H3.984V3.984Zm4.118 35.993H3.984v-3.985h4.118v3.985Zm13.945-3.985 7.969-10.625 7.968 10.625H22.047Zm20.918 0-6.994-9.325 5.998-8.997 12.215 18.322h-11.22Zm13.662-3.518-13-19.501a1.994 1.994 0 0 0-3.316 0l-6.876 10.313-1.826-2.434a1.993 1.993 0 0 0-3.187 0l-11.356 15.14h-4.98V34c0-1.1-.892-1.992-1.992-1.992H7.969V12.086h2.125c1.1 0 1.992-.892 1.992-1.992V7.969h43.828v2.125c0 1.1.892 1.992 1.992 1.992h2.125v19.922h-2.125c-.487 0-.933.175-1.28.466Zm7.389 7.503h-4.118v-3.985h4.118v3.985ZM59.898 8.102V3.984h4.118v4.118h-4.118Z" fill="#000" style="fill:#000;fill-opacity:1"/><path d="M18.063 12.086a5.983 5.983 0 0 0-5.977 5.976 5.983 5.983 0 0 0 5.976 5.977 5.983 5.983 0 0 0 5.977-5.977 5.983 5.983 0 0 0-5.977-5.976Zm0 7.969a1.994 1.994 0 0 1-1.993-1.992c0-1.099.894-1.993 1.992-1.993 1.099 0 1.993.894 1.993 1.992a1.994 1.994 0 0 1-1.992 1.993Z" fill="#000" style="fill:#000;fill-opacity:1"/></g><defs><clipPath id="ba"><path fill="#fff" style="fill:#fff;fill-opacity:1" d="M0 0h68v68H0z"/></clipPath></defs></svg><svg fill="none" viewBox="0 0 68 68" id="develop" xmlns="http://www.w3.org/2000/svg"><g clip-path="url(#ca)"><path d="m24.5 22.5-6.5 4v9l1.5 1.5 5-3" stroke="#000" style="stroke:#000;stroke-opacity:1"/><path d="m24 22.5.5 11.5-2 1-4.5 2.5-.5-2.5.5-8.5 6-4ZM26 31.5l1.5-19 6-10.5L37 4l7 17.5 5 6V38l-5-3h-5.5L42 45H26l3-10-3-3.5Z" fill="#FFD645" stroke="#000" style="fill:color(display-p3 1 .8396 .2708);fill-opacity:1;stroke:#000;stroke-opacity:1"/><path d="M62.023 7.97H40.975c-.065 0-.13.003-.194.009A29.033 29.033 0 0 0 35.409.584a1.992 1.992 0 0 0-2.818 0 29.033 29.033 0 0 0-5.371 7.395 1.977 1.977 0 0 0-.195-.01H5.977A5.983 5.983 0 0 0 0 13.946v35.86a5.983 5.983 0 0 0 5.977 5.976h17.31L20.6 64.016h-2.538a1.992 1.992 0 1 0 0 3.984h31.875a1.992 1.992 0 0 0 0-3.984h-2.54l-2.684-8.234h17.31A5.983 5.983 0 0 0 68 49.805v-35.86a5.983 5.983 0 0 0-5.977-5.976ZM34 4.927a25.08 25.08 0 0 1 3.893 6.235 9.953 9.953 0 0 1-3.893.79 9.95 9.95 0 0 1-3.893-.79A25.084 25.084 0 0 1 34 4.928Zm-5.977 16.987c0-2.194.09-4.247.789-6.976 1.64.657 3.397.999 5.188.999 1.79 0 3.548-.342 5.188-1 .69 2.698.789 4.758.789 6.977v9.96H28.023v-9.96Zm11.182 21.914h-10.41l2.657-7.97h5.096l2.657 7.97ZM3.985 13.946c0-1.099.893-1.992 1.992-1.992h19.575a28.995 28.995 0 0 0-1.49 8.165c-4.552.916-7.992 4.946-7.992 9.764v7.97a1.992 1.992 0 0 0 2.883 1.781l7.549-3.774h.75l-2.657 7.969H3.985V13.946Zm20.054 10.302v8.388l-3.984 1.993v-4.746a5.987 5.987 0 0 1 3.984-5.635Zm.753 39.768 2.685-8.234h13.046l2.685 8.234H24.792Zm39.224-14.21a1.994 1.994 0 0 1-1.993 1.991H5.977a1.994 1.994 0 0 1-1.993-1.992v-1.992h60.032v1.992Zm0-5.977H43.405l-2.657-7.97h.75l7.549 3.775a1.992 1.992 0 0 0 2.883-1.782v-7.969c0-4.818-3.44-8.848-7.992-9.764a28.987 28.987 0 0 0-1.49-8.165h19.575c1.099 0 1.993.893 1.993 1.992v29.883ZM43.96 32.636v-8.388a5.987 5.987 0 0 1 3.984 5.635v4.746l-3.984-1.993Z" fill="#000" style="fill:#000;fill-opacity:1"/><path d="M34 23.906a1.992 1.992 0 1 0 0-3.984 1.992 1.992 0 0 0 0 3.984Z" fill="#000" style="fill:#000;fill-opacity:1"/></g><defs><clipPath id="ca"><path fill="#fff" style="fill:#fff;fill-opacity:1" d="M0 0h68v68H0z"/></clipPath></defs></svg><svg version="1.0" viewBox="0 0 265 265" id="favicon" xmlns="http://www.w3.org/2000/svg"><path d="M116 2.2c-7.5 3.9-8.4 6-9 21.1-.3 7.3-1 14-1.4 15.1-1.2 2.4-10.2 6.6-14.5 6.6-2.9 0-4.6-1.2-12-8.4-9-8.9-11.9-10.6-17.8-10.6-5.7 0-9.4 2.5-20.5 13.8C24.4 56.4 24.1 61.2 38.5 76c4.6 4.7 8.6 9.6 9 11.1.7 2.9-2.7 13-5.2 15.1-1.1.9-5.9 1.5-14.7 1.8-14.3.6-17.8 1.7-22 7.3-2 2.7-2.1 4.1-2.1 21.2 0 17 .2 18.6 2.1 21.1 4.6 6.2 6.4 6.9 20.9 7.4 12.1.5 13.6.7 15.7 2.7 3.1 2.9 6.2 11.5 5.3 14.5-.4 1.3-4.5 6.1-9 10.8-9.7 10-11.6 14.2-9.6 21.3 1 3.3 3.8 6.7 13.4 16.3 10 9.9 12.8 12.2 15.8 12.7 7.1 1.1 10.4-.6 19.8-9.6 10.3-9.9 12.6-10.8 19.9-7.7 8.3 3.6 8.6 4.3 9.2 19.5.5 14.5 1.2 16.3 7.4 20.9 2.3 1.8 4.2 2.1 12.9 2.1h10.2l.5-18.5.5-18.5 24.9-.3 24.9-.2 8.1 8.6 8.1 8.6v5.9c0 5.3.3 6.2 3.3 9.1 2.6 2.7 4 3.3 7.5 3.3 5.4 0 9.4-2.6 11.4-7.3 1.3-3.2 1.4-4.2.2-7.7-2.1-5.8-7-8.9-13.3-8.1l-4.9.5-9.1-9.4-9.1-9.5H138v-34h-7.4c-4 0-8.9-.2-10.7-.5-2.6-.4-2.9-.3-1.4.4 1.1.5 4.6 1.3 7.8 1.6l5.7.8-.2 34.6-.3 34.6-4.7.3c-5.8.4-11.1-1.9-12.7-5.4-.6-1.4-1.1-7.3-1.1-13.2 0-14.6-1.8-18.3-10.9-23-11.1-5.6-15.1-4.5-27.2 7.4-8.3 8.1-8.8 8.4-13.3 8.4-4.6 0-4.8-.2-14.8-10.3-5.5-5.6-10.7-11.2-11.6-12.5-2.7-4.1-.9-7.9 8.2-17.2 10.1-10.3 11.6-14 9.2-22.4-2-6.8-5.2-11.4-9.6-13.7-2.7-1.5-5.7-1.9-14.1-1.9-19 0-19.9-1.1-19.9-22.9V117l2.9-3.2 2.9-3.3 13.4-.5c10.6-.4 14-.9 16.1-2.3 3.5-2.2 6.2-6.7 8.3-13.2 2.6-8.1 1-11.9-9.2-22.5-6.6-6.8-8.6-9.6-9.1-12.5-.6-3.6-.3-3.9 11.4-15.6 15.8-15.8 16.1-15.8 31.1-1.4 3.5 3.3 7.3 6.5 8.5 7.2 3.5 2 10 1.5 15.8-1.1C111 44.2 113 40 113 23.9c0-10.5.1-11 2.9-14.1 2.5-2.9 3.5-3.2 9.5-3.6l6.6-.4v69.8l-3.7 1.1-3.8 1 4.5-.2c10-.4 8.9 1.6 9.2-16.8l.3-16.2 26.8-.5 26.9-.5 2-2.5c1.1-1.4 4.9-5.5 8.4-9.2l6.4-6.7 5.3.6c4.7.5 5.6.2 8.4-2.1 4.5-3.8 5.8-8.3 3.8-13.2-2.4-5.9-5.9-7.9-13.2-7.5-1.3.1-3.7 1.4-5.5 3-3 2.7-3.3 3.4-3.3 8.9v6l-7.9 8.6-7.8 8.6H138V20.2c0-12.5-.4-18.2-1.2-19-.7-.7-4.2-1.2-8.8-1.2-5.9 0-8.6.5-12 2.2zm104.7 9.4c1.5 2.4 1.5 2.9.2 5.3-2.8 5-10.9 3.2-10.9-2.5 0-5.5 7.6-7.5 10.7-2.8zm-1.5 234.6c2.7 2.2 3 5.3.7 8.1-2.4 3.2-5.2 3.4-7.9.7s-2.6-6.5.2-8.4c2.7-1.9 4.9-2 7-.4z"/><path d="M242.3 45.1c-1.8.5-4.5 2.5-6 4.4l-2.8 3.5h-34l-11.8 11.7-11.8 11.8 3.7.3c3.5.3 4.3-.2 12.8-8.7l9.1-9.1h32.4l1.6 3c3 5.9 11.8 7.9 17 3.8 3.6-2.8 5.6-7.8 4.9-11.8-.7-3.3-5.7-9-7.9-9-.7 0-1.9-.2-2.7-.4-.7-.2-2.8 0-4.5.5zm8.2 8.3c3.7 5.6-3.6 11.5-8.7 6.9-1-.9-1.8-2.6-1.8-3.9 0-5.3 7.6-7.5 10.5-3zM91 121c-4.6 9.1-14 30.2-14 31.5 0 1.1 1.1 1.5 3.8 1.5 3.4 0 4-.4 5.5-3.5L88 147h18.6l1.7 3.5c1.5 3.1 2.1 3.5 5.7 3.5 2.2 0 4-.5 4-1 0-.6-3.7-8.9-8.1-18.5l-8.1-17.5h-4.4c-4.1 0-4.5.3-6.4 4zm9.4 12.2c1.3 2.9 2.1 5.6 1.9 6-.6 1.1-9.1 1-9.7-.1-.7-1 3.5-11.1 4.6-11.1.5 0 1.9 2.4 3.2 5.2zM132 135.5V154l16.8-.2 16.7-.3v-8l-12.2-.3-12.2-.3-.3-13.7-.3-13.7-4.2-.3-4.3-.3v18.6zM171 121.5v4.5h14v28h9v-28h14v-9h-37v4.5zM222 130.7c0 15.5 1 18.7 7.2 22 4.7 2.4 18 2.4 23 0 6.5-3.3 7.3-5.4 7.6-21.5l.4-14.2H251v12.5c0 15.4-.7 16.5-9.9 16.5-9.4 0-10-.9-10.3-16l-.3-12.5-4.2-.3-4.3-.3v13.8zM175 187.7c0 .5 5.5 6.1 12.2 12.5l12.3 11.7 17.8.1c13.9 0 17.7.3 17.7 1.3 0 2.5 5.7 6.8 9.6 7.4 3 .4 4.7-.1 7.4-1.9 8.6-5.8 6.3-18.9-3.8-21.5-4.2-1-10.1 1.5-12.4 5.3l-2 3.4h-32.3l-9.5-9.5c-8.6-8.6-9.8-9.5-13.2-9.5-2.1 0-3.8.3-3.8.7zm74.9 17.9c2.7 3.4 2.6 4-.4 6.9-2.9 3-4.9 3.1-7.5.5-2.7-2.7-2.6-6.5.2-8.4 3.2-2.3 5.4-2 7.7 1z"/></svg><svg fill="none" viewBox="0 0 24 25" id="heart" xmlns="http://www.w3.org/2000/svg"><path fill-rule="evenodd" clip-rule="evenodd" d="M12.692 7.584a1 1 0 0 1-1.384 0l-.693-.665A4.5 4.5 0 0 0 3 10.166c0 2.383 1.29 4.35 3.152 5.967 1.863 1.618 4.091 2.691 5.423 3.239.278.114.572.114.85 0 1.332-.548 3.56-1.62 5.423-3.239C19.71 14.517 21 12.55 21 10.167a4.5 4.5 0 0 0-7.615-3.248l-.693.665ZM12 5.476a6.5 6.5 0 0 0-11 4.69c0 6.369 6.97 9.886 9.814 11.055a3.096 3.096 0 0 0 2.372 0C16.03 20.051 23 16.535 23 10.167a6.5 6.5 0 0 0-11-4.69Z" fill="#141718"/></svg><svg fill="none" viewBox="0 0 24 24" id="heart-line" xmlns="http://www.w3.org/2000/svg"><path d="M12.001 4.529a5.998 5.998 0 0 1 8.242.228 6 6 0 0 1 .236 8.236l-8.48 8.492-8.478-8.492a6 6 0 0 1 8.48-8.464Zm6.826 1.641a3.998 3.998 0 0 0-5.49-.153l-1.335 1.198-1.336-1.197a4 4 0 0 0-5.686 5.605L12 18.654l7.02-7.03a4 4 0 0 0-.193-5.454Z" fill="#000"/></svg><svg fill="none" viewBox="0 0 24 24" id="id-card-line" xmlns="http://www.w3.org/2000/svg"><path d="M3 6h18v12H3V6ZM2 4a1 1 0 0 0-1 1v14a1 1 0 0 0 1 1h20a1 1 0 0 0 1-1V5a1 1 0 0 0-1-1H2Zm11 4h6v2h-6V8Zm5 4h-5v2h5v-2Zm-7.5-2a2.5 2.5 0 1 1-5 0 2.5 2.5 0 0 1 5 0ZM8 13.5A3.5 3.5 0 0 0 4.5 17h7A3.5 3.5 0 0 0 8 13.5Z" fill="#000"/></svg><svg fill="none" viewBox="0 0 24 24" id="search" xmlns="http://www.w3.org/2000/svg"><path d="M18.5 18.5 22 22m-1-10.5a9.5 9.5 0 1 0-19 0 9.5 9.5 0 0 0 19 0Z" stroke="#141718" stroke-width="1.5" stroke-linecap="round" stroke-linejoin="round"/></svg><svg fill="none" viewBox="0 0 24 24" id="search-line" xmlns="http://www.w3.org/2000/svg"><path d="m18.031 16.617 4.283 4.282-1.415 1.415-4.282-4.283A8.96 8.96 0 0 1 11 20c-4.968 0-9-4.032-9-9s4.032-9 9-9 9 4.032 9 9a8.96 8.96 0 0 1-1.969 5.617Zm-2.006-.742A6.977 6.977 0 0 0 18 11c0-3.867-3.133-7-7-7s-7 3.133-7 7 3.133 7 7 7a6.977 6.977 0 0 0 4.875-1.975l.15-.15Z" fill="#000"/></svg><svg fill="none" viewBox="0 0 68 68" id="testing" xmlns="http://www.w3.org/2000/svg"><g clip-path="url(#ma)"><path fill="#FFD645" style="fill:color(display-p3 1 .8396 .2708);fill-opacity:1" d="M46 27h12v30H46zM11 43h27v14H11zM11 27h27v6H11z"/><path d="M62.023 0H5.977A5.983 5.983 0 0 0 0 5.977v56.046A5.983 5.983 0 0 0 5.977 68h56.046A5.983 5.983 0 0 0 68 62.023V5.977A5.983 5.983 0 0 0 62.023 0ZM3.984 5.977c0-1.099.894-1.993 1.993-1.993h9.96v11.954H3.985V5.976Zm60.032 56.046a1.994 1.994 0 0 1-1.993 1.993H5.977a1.994 1.994 0 0 1-1.993-1.993V19.922h60.032v42.101Zm0-46.086H19.922V3.985h42.101c1.099 0 1.993.894 1.993 1.993v9.96Z" fill="#000" style="fill:#000;fill-opacity:1"/><path d="M58.04 7.969h-3.985a1.992 1.992 0 0 0 0 3.984h3.984a1.992 1.992 0 0 0 0-3.984ZM45.953 7.969H41.97a1.992 1.992 0 1 0 0 3.984h3.984a1.992 1.992 0 0 0 0-3.984ZM34 7.969h-3.984a1.992 1.992 0 0 0 0 3.984H34a1.992 1.992 0 0 0 0-3.984ZM37.984 24.04H9.961c-1.1 0-1.992.891-1.992 1.991V34c0 1.1.892 1.992 1.992 1.992h28.023c1.1 0 1.993-.892 1.993-1.992v-7.969c0-1.1-.892-1.992-1.993-1.992Zm-1.992 7.968H11.953v-3.985h24.04v3.985ZM58.04 24.04H45.952c-1.1 0-1.992.891-1.992 1.991V58.04c0 1.1.892 1.992 1.992 1.992H58.04c1.1 0 1.992-.892 1.992-1.992V26.031c0-1.1-.892-1.992-1.992-1.992Zm-1.993 32.007h-8.102V28.023h8.102v28.024ZM37.984 39.977H9.961c-1.1 0-1.992.892-1.992 1.992v16.07c0 1.1.892 1.992 1.992 1.992h28.023c1.1 0 1.993-.892 1.993-1.992V41.97c0-1.1-.892-1.992-1.993-1.992Zm-1.992 16.07H11.953V43.96h24.04v12.086Z" fill="#000" style="fill:#000;fill-opacity:1"/></g><defs><clipPath id="ma"><path fill="#fff" style="fill:#fff;fill-opacity:1" d="M0 0h68v68H0z"/></clipPath></defs></svg><svg fill="none" viewBox="0 0 24 24" id="user" xmlns="http://www.w3.org/2000/svg"><path d="M18.559 19.549a7.003 7.003 0 0 0-13.118 0m13.118 0A9.976 9.976 0 0 0 22 12c0-5.523-4.477-10-10-10S2 6.477 2 12a9.977 9.977 0 0 0 3.441 7.549m13.118 0A9.961 9.961 0 0 1 12 22a9.961 9.961 0 0 1-6.559-2.451M15 9a3 3 0 1 1-6 0 3 3 0 0 1 6 0Z" stroke="#141718" stroke-width="1.5" stroke-linejoin="round"/></svg><svg fill="none" viewBox="0 0 24 24" id="user-star-line" xmlns="http://www.w3.org/2000/svg"><path d="M12 14v2a6 6 0 0 0-6 6H4a8 8 0 0 1 8-8Zm0-1c-3.315 0-6-2.685-6-6s2.685-6 6-6 6 2.685 6 6-2.685 6-6 6Zm0-2c2.21 0 4-1.79 4-4s-1.79-4-4-4-4 1.79-4 4 1.79 4 4 4Zm6 10.5-2.939 1.545.561-3.273-2.377-2.317 3.286-.477L18 14l1.47 2.977 3.285.478-2.377 2.318.56 3.272L18 21.5Z" fill="#000"/></svg><svg viewBox="0 0 497 497" id="website" xmlns="http://www.w3.org/2000/svg"><path d="M497 128.5v312c0 11.046-8.954 20-20 20H20c-11.046 0-20-8.954-20-20v-312z" fill="#faf8f8"/><path d="M290.498 294.5c0-23.196-18.804-42-42-42a41.823 41.823 0 0 0-19.482 4.782c-13.386 7.021-19.327 21.053-19.327 37.218 0 23.196 15.613 36.457 38.809 36.457 16.214 0 30.282-3.645 37.282-17.099a41.814 41.814 0 0 0 4.718-19.358z" fill="#dc4955"/><path d="M286.468 312.47c-6.73 14.21-21.2 24.03-37.97 24.03-23.2 0-42-18.8-42-42 0-16.77 9.82-31.24 24.03-37.97-2.59 5.45-4.03 11.54-4.03 17.97 0 23.2 18.8 42 42 42 6.43 0 12.52-1.44 17.97-4.03z" fill="#d82f3c"/><path d="M429.496 294.5c0-23.196-18.804-42-42-42a41.823 41.823 0 0 0-19.482 4.782c-13.386 7.021-19.327 21.053-19.327 37.218 0 23.196 15.613 36.457 38.809 36.457 16.214 0 30.282-3.645 37.282-17.099a41.814 41.814 0 0 0 4.718-19.358z" fill="#b7e546"/><path d="M425.466 312.47c-6.73 14.21-21.2 24.03-37.97 24.03-23.2 0-42-18.8-42-42 0-16.77 9.82-31.24 24.03-37.97-2.59 5.45-4.03 11.54-4.03 17.97 0 23.2 18.8 42 42 42 6.43 0 12.52-1.44 17.97-4.03z" fill="#abd641"/><path d="M497 148.5v-20l-276.011-12.798L0 128.5v312c0 11.046 8.954 20 20 20h15c-8.28 0-15-6.72-15-15v-291a6 6 0 0 1 6-6z" fill="#f0e9e6"/><path d="M497 56.5V129H0V56.5c0-11.046 8.954-20 20-20h457c11.046 0 20 8.954 20 20z" fill="#5d748a"/><g fill="#3f597d"><path d="M227.758 108.5c-8.255 0-14.947-6.716-14.947-15s6.692-15 14.947-15h208.315c8.255 0 14.947 6.716 14.947 15s-6.692 15-14.947 15z"/><ellipse cx="160.869" cy="93.5" rx="14.947" ry="15"/><path d="m171.361 104.184 12.874-12.869-13.139 1.179zM150.592 82.608l12.562-12.516-2.693 10.408z"/><ellipse cx="98.034" cy="93.5" rx="14.947" ry="15"/><path d="m108.553 104.157 12.382-12.499-12.674.836zM87.757 82.608l12.371-12.459L97.626 80.5z"/><ellipse cx="32.947" cy="93.5" rx="14.947" ry="15"/><path d="M43.769 103.846 56.49 90.66l-13.139 1.381zM22.67 82.608 34.292 70.57l-1.753 9.93z"/></g><ellipse cx="173.849" cy="80.5" fill="#b7e546" rx="14.947" ry="15"/><path d="m217.514 82.577 12.971-12.991-3.025 14.276zM446.83 103.915l13.149-13.179-10.185 3.381z" fill="#3f597d"/><ellipse cx="110.946" cy="80.5" fill="#ffbf54" rx="14.947" ry="15"/><ellipse cx="45.495" cy="80.5" fill="#dc4955" rx="14.947" ry="15"/><path d="M240.737 95.5c-8.255 0-14.947-6.716-14.947-15s6.692-15 14.947-15h208.315c8.255 0 14.947 6.716 14.947 15s-6.692 15-14.947 15z" fill="#faf8f8"/><path d="m135.893 215 226.628 2c5.523 0 10-4.477 10-10l3.479-7v-30c0-5.523-4.477-10-10-10H142l-6.107 5c-5.523 0-10 4.477-10 10v30c0 5.523 4.477 10 10 10z" fill="#aad8de"/><path d="M376 200v10c0 5.523-4.477 10-10 10H132c-5.523 0-10-4.477-10-10v-40c0-5.523 4.477-10 10-10h10v33a7 7 0 0 0 7 7z" fill="#94ccd4"/><path d="M151.5 294.5c0-23.196-18.804-42-42-42a41.823 41.823 0 0 0-19.482 4.782c-13.386 7.021-19.327 21.053-19.327 37.218 0 23.196 15.613 36.457 38.809 36.457 16.214 0 30.282-3.645 37.282-17.099A41.814 41.814 0 0 0 151.5 294.5z" fill="#ffbf54"/><path d="M147.47 312.47c-6.73 14.21-21.2 24.03-37.97 24.03-23.2 0-42-18.8-42-42 0-16.77 9.82-31.24 24.03-37.97-2.59 5.45-4.03 11.54-4.03 17.97 0 23.2 18.8 42 42 42 6.43 0 12.52-1.44 17.97-4.03z" fill="#ffa442"/><path d="M149.5 374h-70a7.5 7.5 0 0 1 0-15h70a7.5 7.5 0 0 1 0 15zM149.5 404h-80a7.5 7.5 0 0 1 0-15h80a7.5 7.5 0 0 1 0 15zM149.5 434h-80a7.5 7.5 0 0 1 0-15h80a7.5 7.5 0 0 1 0 15zM288.5 374h-70a7.5 7.5 0 0 1 0-15h70c4.143 0 7.5 3.358 7.5 7.5s-3.357 7.5-7.5 7.5zM288.5 404h-80a7.5 7.5 0 0 1 0-15h80c4.143 0 7.5 3.358 7.5 7.5s-3.357 7.5-7.5 7.5zM288.5 434h-80a7.5 7.5 0 0 1 0-15h80c4.143 0 7.5 3.358 7.5 7.5s-3.357 7.5-7.5 7.5zM427.5 374h-70c-4.143 0-7.5-3.358-7.5-7.5s3.357-7.5 7.5-7.5h70c4.143 0 7.5 3.358 7.5 7.5s-3.357 7.5-7.5 7.5zM427.5 404h-80c-4.143 0-7.5-3.358-7.5-7.5s3.357-7.5 7.5-7.5h80c4.143 0 7.5 3.358 7.5 7.5s-3.357 7.5-7.5 7.5zM427.5 434h-80c-4.143 0-7.5-3.358-7.5-7.5s3.357-7.5 7.5-7.5h80c4.143 0 7.5 3.358 7.5 7.5s-3.357 7.5-7.5 7.5z" fill="#f0e9e6"/></svg></svg>