<?xml version="1.0" encoding="utf-8"?><svg viewBox="0 0 512 512" xmlns="http://www.w3.org/2000/svg" xmlns:xlink="http://www.w3.org/1999/xlink"><style>:root>svg{display:none}:root>svg:target{display:block}</style><svg fill="none" viewBox="0 0 68 68" id="design" xmlns="http://www.w3.org/2000/svg">
    <g clip-path="url(#aa)">
        <path d="m30.5 24 9.093 12H21.407L30.5 24Z" fill="#FFD645" style="fill:color(display-p3 1 .8396 .2708);fill-opacity:1"/>
        <path d="m42 17 12.99 19.5H29.01L42 17Z" fill="#FFD645" style="fill:color(display-p3 1 .8396 .2708);fill-opacity:1"/>
        <path d="M66.008 47.945H1.992c-1.1 0-1.992.892-1.992 1.992v16.07C0 67.109.892 68 1.992 68h64.016c1.1 0 1.992-.892 1.992-1.992v-16.07c0-1.1-.892-1.993-1.992-1.993Zm-1.992 16.07h-4.118v-6.109a1.992 1.992 0 0 0-3.984 0v6.11H51.93V61.89a1.992 1.992 0 0 0-3.985 0v2.125h-3.984v-6.11a1.992 1.992 0 0 0-3.984 0v6.11h-3.985V61.89a1.992 1.992 0 0 0-3.984 0v2.125h-3.985v-6.11a1.992 1.992 0 0 0-3.984 0v6.11h-3.984V61.89a1.992 1.992 0 0 0-3.985 0v2.125h-3.984v-6.11a1.992 1.992 0 0 0-3.984 0v6.11H3.984V51.93h60.032v12.086ZM66.008 12.086c1.1 0 1.992-.892 1.992-1.992V1.992C68 .892 67.108 0 66.008 0h-8.102c-1.1 0-1.992.892-1.992 1.992v1.992H12.086V1.992c0-1.1-.892-1.992-1.992-1.992H1.992C.892 0 0 .892 0 1.992v8.102c0 1.1.892 1.992 1.992 1.992h1.992v19.922H1.992C.892 32.008 0 32.9 0 34v7.969c0 1.1.892 1.992 1.992 1.992h8.102c1.1 0 1.992-.892 1.992-1.992v-1.992h43.828v1.992c0 1.1.892 1.992 1.992 1.992h8.102c1.1 0 1.992-.892 1.992-1.992V34c0-1.1-.892-1.992-1.992-1.992h-1.992V12.086h1.992ZM3.984 3.984h4.118v4.118H3.984V3.984Zm4.118 35.993H3.984v-3.985h4.118v3.985Zm13.945-3.985 7.969-10.625 7.968 10.625H22.047Zm20.918 0-6.994-9.325 5.998-8.997 12.215 18.322h-11.22Zm13.662-3.518-13-19.501a1.994 1.994 0 0 0-3.316 0l-6.876 10.313-1.826-2.434a1.993 1.993 0 0 0-3.187 0l-11.356 15.14h-4.98V34c0-1.1-.892-1.992-1.992-1.992H7.969V12.086h2.125c1.1 0 1.992-.892 1.992-1.992V7.969h43.828v2.125c0 1.1.892 1.992 1.992 1.992h2.125v19.922h-2.125c-.487 0-.933.175-1.28.466Zm7.389 7.503h-4.118v-3.985h4.118v3.985ZM59.898 8.102V3.984h4.118v4.118h-4.118Z" fill="#000" style="fill:#000;fill-opacity:1"/>
        <path d="M18.063 12.086a5.983 5.983 0 0 0-5.977 5.976 5.983 5.983 0 0 0 5.976 5.977 5.983 5.983 0 0 0 5.977-5.977 5.983 5.983 0 0 0-5.977-5.976Zm0 7.969a1.994 1.994 0 0 1-1.993-1.992c0-1.099.894-1.993 1.992-1.993 1.099 0 1.993.894 1.993 1.992a1.994 1.994 0 0 1-1.992 1.993Z" fill="#000" style="fill:#000;fill-opacity:1"/>
    </g>
    <defs>
        <clipPath id="aa">
            <path fill="#fff" style="fill:#fff;fill-opacity:1" d="M0 0h68v68H0z"/>
        </clipPath>
    </defs>
</svg><svg fill="none" viewBox="0 0 68 68" id="develop" xmlns="http://www.w3.org/2000/svg">
    <g clip-path="url(#ba)">
        <path d="m24.5 22.5-6.5 4v9l1.5 1.5 5-3" stroke="#000" style="stroke:#000;stroke-opacity:1"/>
        <path d="m24 22.5.5 11.5-2 1-4.5 2.5-.5-2.5.5-8.5 6-4ZM26 31.5l1.5-19 6-10.5L37 4l7 17.5 5 6V38l-5-3h-5.5L42 45H26l3-10-3-3.5Z" fill="#FFD645" stroke="#000" style="fill:color(display-p3 1 .8396 .2708);fill-opacity:1;stroke:#000;stroke-opacity:1"/>
        <path d="M62.023 7.97H40.975c-.065 0-.13.003-.194.009A29.033 29.033 0 0 0 35.409.584a1.992 1.992 0 0 0-2.818 0 29.033 29.033 0 0 0-5.371 7.395 1.977 1.977 0 0 0-.195-.01H5.977A5.983 5.983 0 0 0 0 13.946v35.86a5.983 5.983 0 0 0 5.977 5.976h17.31L20.6 64.016h-2.538a1.992 1.992 0 1 0 0 3.984h31.875a1.992 1.992 0 0 0 0-3.984h-2.54l-2.684-8.234h17.31A5.983 5.983 0 0 0 68 49.805v-35.86a5.983 5.983 0 0 0-5.977-5.976ZM34 4.927a25.08 25.08 0 0 1 3.893 6.235 9.953 9.953 0 0 1-3.893.79 9.95 9.95 0 0 1-3.893-.79A25.084 25.084 0 0 1 34 4.928Zm-5.977 16.987c0-2.194.09-4.247.789-6.976 1.64.657 3.397.999 5.188.999 1.79 0 3.548-.342 5.188-1 .69 2.698.789 4.758.789 6.977v9.96H28.023v-9.96Zm11.182 21.914h-10.41l2.657-7.97h5.096l2.657 7.97ZM3.985 13.946c0-1.099.893-1.992 1.992-1.992h19.575a28.995 28.995 0 0 0-1.49 8.165c-4.552.916-7.992 4.946-7.992 9.764v7.97a1.992 1.992 0 0 0 2.883 1.781l7.549-3.774h.75l-2.657 7.969H3.985V13.946Zm20.054 10.302v8.388l-3.984 1.993v-4.746a5.987 5.987 0 0 1 3.984-5.635Zm.753 39.768 2.685-8.234h13.046l2.685 8.234H24.792Zm39.224-14.21a1.994 1.994 0 0 1-1.993 1.991H5.977a1.994 1.994 0 0 1-1.993-1.992v-1.992h60.032v1.992Zm0-5.977H43.405l-2.657-7.97h.75l7.549 3.775a1.992 1.992 0 0 0 2.883-1.782v-7.969c0-4.818-3.44-8.848-7.992-9.764a28.987 28.987 0 0 0-1.49-8.165h19.575c1.099 0 1.993.893 1.993 1.992v29.883ZM43.96 32.636v-8.388a5.987 5.987 0 0 1 3.984 5.635v4.746l-3.984-1.993Z" fill="#000" style="fill:#000;fill-opacity:1"/>
        <path d="M34 23.906a1.992 1.992 0 1 0 0-3.984 1.992 1.992 0 0 0 0 3.984Z" fill="#000" style="fill:#000;fill-opacity:1"/>
    </g>
    <defs>
        <clipPath id="ba">
            <path fill="#fff" style="fill:#fff;fill-opacity:1" d="M0 0h68v68H0z"/>
        </clipPath>
    </defs>
</svg><svg fill="none" viewBox="0 0 24 25" id="heart" xmlns="http://www.w3.org/2000/svg">
    <path fill-rule="evenodd" clip-rule="evenodd" d="M12.692 7.584a1 1 0 0 1-1.384 0l-.693-.665A4.5 4.5 0 0 0 3 10.166c0 2.383 1.29 4.35 3.152 5.967 1.863 1.618 4.091 2.691 5.423 3.239.278.114.572.114.85 0 1.332-.548 3.56-1.62 5.423-3.239C19.71 14.517 21 12.55 21 10.167a4.5 4.5 0 0 0-7.615-3.248l-.693.665ZM12 5.476a6.5 6.5 0 0 0-11 4.69c0 6.369 6.97 9.886 9.814 11.055a3.096 3.096 0 0 0 2.372 0C16.03 20.051 23 16.535 23 10.167a6.5 6.5 0 0 0-11-4.69Z" fill="#141718"/>
</svg><svg fill="none" viewBox="0 0 24 24" id="heart-line" xmlns="http://www.w3.org/2000/svg">
    <path d="M12.001 4.529a5.998 5.998 0 0 1 8.242.228 6 6 0 0 1 .236 8.236l-8.48 8.492-8.478-8.492a6 6 0 0 1 8.48-8.464Zm6.826 1.641a3.998 3.998 0 0 0-5.49-.153l-1.335 1.198-1.336-1.197a4 4 0 0 0-5.686 5.605L12 18.654l7.02-7.03a4 4 0 0 0-.193-5.454Z" fill="#000"/>
</svg><svg fill="none" viewBox="0 0 24 24" id="id-card-line" xmlns="http://www.w3.org/2000/svg">
    <path d="M3 6h18v12H3V6ZM2 4a1 1 0 0 0-1 1v14a1 1 0 0 0 1 1h20a1 1 0 0 0 1-1V5a1 1 0 0 0-1-1H2Zm11 4h6v2h-6V8Zm5 4h-5v2h5v-2Zm-7.5-2a2.5 2.5 0 1 1-5 0 2.5 2.5 0 0 1 5 0ZM8 13.5A3.5 3.5 0 0 0 4.5 17h7A3.5 3.5 0 0 0 8 13.5Z" fill="#000"/>
</svg><svg fill="none" viewBox="0 0 24 24" id="search" xmlns="http://www.w3.org/2000/svg">
    <path d="M18.5 18.5 22 22m-1-10.5a9.5 9.5 0 1 0-19 0 9.5 9.5 0 0 0 19 0Z" stroke="#141718" stroke-width="1.5" stroke-linecap="round" stroke-linejoin="round"/>
</svg><svg fill="none" viewBox="0 0 24 24" id="search-line" xmlns="http://www.w3.org/2000/svg">
    <path d="m18.031 16.617 4.283 4.282-1.415 1.415-4.282-4.283A8.96 8.96 0 0 1 11 20c-4.968 0-9-4.032-9-9s4.032-9 9-9 9 4.032 9 9a8.96 8.96 0 0 1-1.969 5.617Zm-2.006-.742A6.977 6.977 0 0 0 18 11c0-3.867-3.133-7-7-7s-7 3.133-7 7 3.133 7 7 7a6.977 6.977 0 0 0 4.875-1.975l.15-.15Z" fill="#000"/>
</svg><svg fill="none" viewBox="0 0 68 68" id="testing" xmlns="http://www.w3.org/2000/svg">
    <g clip-path="url(#ha)">
        <path fill="#FFD645" style="fill:color(display-p3 1 .8396 .2708);fill-opacity:1" d="M46 27h12v30H46zM11 43h27v14H11zM11 27h27v6H11z"/>
        <path d="M62.023 0H5.977A5.983 5.983 0 0 0 0 5.977v56.046A5.983 5.983 0 0 0 5.977 68h56.046A5.983 5.983 0 0 0 68 62.023V5.977A5.983 5.983 0 0 0 62.023 0ZM3.984 5.977c0-1.099.894-1.993 1.993-1.993h9.96v11.954H3.985V5.976Zm60.032 56.046a1.994 1.994 0 0 1-1.993 1.993H5.977a1.994 1.994 0 0 1-1.993-1.993V19.922h60.032v42.101Zm0-46.086H19.922V3.985h42.101c1.099 0 1.993.894 1.993 1.993v9.96Z" fill="#000" style="fill:#000;fill-opacity:1"/>
        <path d="M58.04 7.969h-3.985a1.992 1.992 0 0 0 0 3.984h3.984a1.992 1.992 0 0 0 0-3.984ZM45.953 7.969H41.97a1.992 1.992 0 1 0 0 3.984h3.984a1.992 1.992 0 0 0 0-3.984ZM34 7.969h-3.984a1.992 1.992 0 0 0 0 3.984H34a1.992 1.992 0 0 0 0-3.984ZM37.984 24.04H9.961c-1.1 0-1.992.891-1.992 1.991V34c0 1.1.892 1.992 1.992 1.992h28.023c1.1 0 1.993-.892 1.993-1.992v-7.969c0-1.1-.892-1.992-1.993-1.992Zm-1.992 7.968H11.953v-3.985h24.04v3.985ZM58.04 24.04H45.952c-1.1 0-1.992.891-1.992 1.991V58.04c0 1.1.892 1.992 1.992 1.992H58.04c1.1 0 1.992-.892 1.992-1.992V26.031c0-1.1-.892-1.992-1.992-1.992Zm-1.993 32.007h-8.102V28.023h8.102v28.024ZM37.984 39.977H9.961c-1.1 0-1.992.892-1.992 1.992v16.07c0 1.1.892 1.992 1.992 1.992h28.023c1.1 0 1.993-.892 1.993-1.992V41.97c0-1.1-.892-1.992-1.993-1.992Zm-1.992 16.07H11.953V43.96h24.04v12.086Z" fill="#000" style="fill:#000;fill-opacity:1"/>
    </g>
    <defs>
        <clipPath id="ha">
            <path fill="#fff" style="fill:#fff;fill-opacity:1" d="M0 0h68v68H0z"/>
        </clipPath>
    </defs>
</svg><svg fill="none" viewBox="0 0 24 24" id="user" xmlns="http://www.w3.org/2000/svg">
    <path d="M18.559 19.549a7.003 7.003 0 0 0-13.118 0m13.118 0A9.976 9.976 0 0 0 22 12c0-5.523-4.477-10-10-10S2 6.477 2 12a9.977 9.977 0 0 0 3.441 7.549m13.118 0A9.961 9.961 0 0 1 12 22a9.961 9.961 0 0 1-6.559-2.451M15 9a3 3 0 1 1-6 0 3 3 0 0 1 6 0Z" stroke="#141718" stroke-width="1.5" stroke-linejoin="round"/>
</svg><svg fill="none" viewBox="0 0 24 24" id="user-star-line" xmlns="http://www.w3.org/2000/svg">
    <path d="M12 14v2a6 6 0 0 0-6 6H4a8 8 0 0 1 8-8Zm0-1c-3.315 0-6-2.685-6-6s2.685-6 6-6 6 2.685 6 6-2.685 6-6 6Zm0-2c2.21 0 4-1.79 4-4s-1.79-4-4-4-4 1.79-4 4 1.79 4 4 4Zm6 10.5-2.939 1.545.561-3.273-2.377-2.317 3.286-.477L18 14l1.47 2.977 3.285.478-2.377 2.318.56 3.272L18 21.5Z" fill="#000"/>
</svg><svg viewBox="0 0 497 497" id="website" xmlns="http://www.w3.org/2000/svg">
    <path d="M497 128.5v312c0 11.046-8.954 20-20 20H20c-11.046 0-20-8.954-20-20v-312z" fill="#faf8f8"/>
    <path d="M290.498 294.5c0-23.196-18.804-42-42-42a41.823 41.823 0 0 0-19.482 4.782c-13.386 7.021-19.327 21.053-19.327 37.218 0 23.196 15.613 36.457 38.809 36.457 16.214 0 30.282-3.645 37.282-17.099a41.814 41.814 0 0 0 4.718-19.358z" fill="#dc4955"/>
    <path d="M286.468 312.47c-6.73 14.21-21.2 24.03-37.97 24.03-23.2 0-42-18.8-42-42 0-16.77 9.82-31.24 24.03-37.97-2.59 5.45-4.03 11.54-4.03 17.97 0 23.2 18.8 42 42 42 6.43 0 12.52-1.44 17.97-4.03z" fill="#d82f3c"/>
    <path d="M429.496 294.5c0-23.196-18.804-42-42-42a41.823 41.823 0 0 0-19.482 4.782c-13.386 7.021-19.327 21.053-19.327 37.218 0 23.196 15.613 36.457 38.809 36.457 16.214 0 30.282-3.645 37.282-17.099a41.814 41.814 0 0 0 4.718-19.358z" fill="#b7e546"/>
    <path d="M425.466 312.47c-6.73 14.21-21.2 24.03-37.97 24.03-23.2 0-42-18.8-42-42 0-16.77 9.82-31.24 24.03-37.97-2.59 5.45-4.03 11.54-4.03 17.97 0 23.2 18.8 42 42 42 6.43 0 12.52-1.44 17.97-4.03z" fill="#abd641"/>
    <path d="M497 148.5v-20l-276.011-12.798L0 128.5v312c0 11.046 8.954 20 20 20h15c-8.28 0-15-6.72-15-15v-291a6 6 0 0 1 6-6z" fill="#f0e9e6"/>
    <path d="M497 56.5V129H0V56.5c0-11.046 8.954-20 20-20h457c11.046 0 20 8.954 20 20z" fill="#5d748a"/>
    <g fill="#3f597d">
        <path d="M227.758 108.5c-8.255 0-14.947-6.716-14.947-15s6.692-15 14.947-15h208.315c8.255 0 14.947 6.716 14.947 15s-6.692 15-14.947 15z"/>
        <ellipse cx="160.869" cy="93.5" rx="14.947" ry="15"/>
        <path d="m171.361 104.184 12.874-12.869-13.139 1.179zM150.592 82.608l12.562-12.516-2.693 10.408z"/>
        <ellipse cx="98.034" cy="93.5" rx="14.947" ry="15"/>
        <path d="m108.553 104.157 12.382-12.499-12.674.836zM87.757 82.608l12.371-12.459L97.626 80.5z"/>
        <ellipse cx="32.947" cy="93.5" rx="14.947" ry="15"/>
        <path d="M43.769 103.846 56.49 90.66l-13.139 1.381zM22.67 82.608 34.292 70.57l-1.753 9.93z"/>
    </g>
    <ellipse cx="173.849" cy="80.5" fill="#b7e546" rx="14.947" ry="15"/>
    <path d="m217.514 82.577 12.971-12.991-3.025 14.276zM446.83 103.915l13.149-13.179-10.185 3.381z" fill="#3f597d"/>
    <ellipse cx="110.946" cy="80.5" fill="#ffbf54" rx="14.947" ry="15"/>
    <ellipse cx="45.495" cy="80.5" fill="#dc4955" rx="14.947" ry="15"/>
    <path d="M240.737 95.5c-8.255 0-14.947-6.716-14.947-15s6.692-15 14.947-15h208.315c8.255 0 14.947 6.716 14.947 15s-6.692 15-14.947 15z" fill="#faf8f8"/>
    <path d="m135.893 215 226.628 2c5.523 0 10-4.477 10-10l3.479-7v-30c0-5.523-4.477-10-10-10H142l-6.107 5c-5.523 0-10 4.477-10 10v30c0 5.523 4.477 10 10 10z" fill="#aad8de"/>
    <path d="M376 200v10c0 5.523-4.477 10-10 10H132c-5.523 0-10-4.477-10-10v-40c0-5.523 4.477-10 10-10h10v33a7 7 0 0 0 7 7z" fill="#94ccd4"/>
    <path d="M151.5 294.5c0-23.196-18.804-42-42-42a41.823 41.823 0 0 0-19.482 4.782c-13.386 7.021-19.327 21.053-19.327 37.218 0 23.196 15.613 36.457 38.809 36.457 16.214 0 30.282-3.645 37.282-17.099A41.814 41.814 0 0 0 151.5 294.5z" fill="#ffbf54"/>
    <path d="M147.47 312.47c-6.73 14.21-21.2 24.03-37.97 24.03-23.2 0-42-18.8-42-42 0-16.77 9.82-31.24 24.03-37.97-2.59 5.45-4.03 11.54-4.03 17.97 0 23.2 18.8 42 42 42 6.43 0 12.52-1.44 17.97-4.03z" fill="#ffa442"/>
    <path d="M149.5 374h-70a7.5 7.5 0 0 1 0-15h70a7.5 7.5 0 0 1 0 15zM149.5 404h-80a7.5 7.5 0 0 1 0-15h80a7.5 7.5 0 0 1 0 15zM149.5 434h-80a7.5 7.5 0 0 1 0-15h80a7.5 7.5 0 0 1 0 15zM288.5 374h-70a7.5 7.5 0 0 1 0-15h70c4.143 0 7.5 3.358 7.5 7.5s-3.357 7.5-7.5 7.5zM288.5 404h-80a7.5 7.5 0 0 1 0-15h80c4.143 0 7.5 3.358 7.5 7.5s-3.357 7.5-7.5 7.5zM288.5 434h-80a7.5 7.5 0 0 1 0-15h80c4.143 0 7.5 3.358 7.5 7.5s-3.357 7.5-7.5 7.5zM427.5 374h-70c-4.143 0-7.5-3.358-7.5-7.5s3.357-7.5 7.5-7.5h70c4.143 0 7.5 3.358 7.5 7.5s-3.357 7.5-7.5 7.5zM427.5 404h-80c-4.143 0-7.5-3.358-7.5-7.5s3.357-7.5 7.5-7.5h80c4.143 0 7.5 3.358 7.5 7.5s-3.357 7.5-7.5 7.5zM427.5 434h-80c-4.143 0-7.5-3.358-7.5-7.5s3.357-7.5 7.5-7.5h80c4.143 0 7.5 3.358 7.5 7.5s-3.357 7.5-7.5 7.5z" fill="#f0e9e6"/>
</svg></svg>